# Blender 4.1.0
# www.blender.org
mtllib cone.mtl
o Cylinder
v 0.000000 0.851907 -1.000000
v 0.000000 0.070423 1.000000
v 0.166199 0.835538 -1.000000
v 0.013739 0.069069 1.000000
v 0.326011 0.787060 -1.000000
v 0.026950 0.065062 1.000000
v 0.473294 0.708335 -1.000000
v 0.039125 0.058554 1.000000
v 0.602389 0.602390 -1.000000
v 0.049796 0.049796 1.000000
v 0.708335 0.473294 -1.000000
v 0.058554 0.039125 1.000000
v 0.787060 0.326011 -1.000000
v 0.065062 0.026950 1.000000
v 0.835538 0.166199 -1.000000
v 0.069069 0.013739 1.000000
v 0.851907 0.000000 -1.000000
v 0.070423 -0.000000 1.000000
v 0.835538 -0.166199 -1.000000
v 0.069069 -0.013739 1.000000
v 0.787060 -0.326011 -1.000000
v 0.065062 -0.026950 1.000000
v 0.708335 -0.473294 -1.000000
v 0.058554 -0.039125 1.000000
v 0.602389 -0.602389 -1.000000
v 0.049796 -0.049796 1.000000
v 0.473294 -0.708335 -1.000000
v 0.039125 -0.058554 1.000000
v 0.326011 -0.787060 -1.000000
v 0.026950 -0.065062 1.000000
v 0.166199 -0.835538 -1.000000
v 0.013739 -0.069069 1.000000
v 0.000000 -0.851907 -1.000000
v 0.000000 -0.070423 1.000000
v -0.166199 -0.835538 -1.000000
v -0.013739 -0.069069 1.000000
v -0.326011 -0.787060 -1.000000
v -0.026950 -0.065062 1.000000
v -0.473294 -0.708335 -1.000000
v -0.039125 -0.058554 1.000000
v -0.602389 -0.602389 -1.000000
v -0.049796 -0.049796 1.000000
v -0.708335 -0.473294 -1.000000
v -0.058554 -0.039125 1.000000
v -0.787060 -0.326011 -1.000000
v -0.065062 -0.026950 1.000000
v -0.835538 -0.166199 -1.000000
v -0.069069 -0.013739 1.000000
v -0.851907 0.000000 -1.000000
v -0.070423 -0.000000 1.000000
v -0.835538 0.166199 -1.000000
v -0.069069 0.013739 1.000000
v -0.787060 0.326011 -1.000000
v -0.065062 0.026950 1.000000
v -0.708335 0.473294 -1.000000
v -0.058554 0.039125 1.000000
v -0.602389 0.602390 -1.000000
v -0.049796 0.049796 1.000000
v -0.473294 0.708335 -1.000000
v -0.039125 0.058554 1.000000
v -0.326011 0.787060 -1.000000
v -0.026950 0.065062 1.000000
v -0.166199 0.835538 -1.000000
v -0.013739 0.069069 1.000000
v 0.000000 0.953910 -0.900836
v 0.186099 0.935580 -0.900836
v 0.365045 0.881298 -0.900836
v 0.529964 0.793147 -0.900836
v 0.674516 0.674516 -0.900836
v 0.793147 0.529964 -0.900836
v 0.881297 0.365045 -0.900836
v 0.935580 0.186099 -0.900836
v 0.953910 0.000000 -0.900836
v 0.935580 -0.186098 -0.900836
v 0.881297 -0.365045 -0.900836
v 0.793147 -0.529964 -0.900836
v 0.674516 -0.674516 -0.900836
v 0.529964 -0.793147 -0.900836
v 0.365045 -0.881297 -0.900836
v 0.186099 -0.935580 -0.900836
v 0.000000 -0.953909 -0.900836
v -0.186099 -0.935580 -0.900836
v -0.365045 -0.881297 -0.900836
v -0.529964 -0.793147 -0.900836
v -0.674516 -0.674516 -0.900836
v -0.793147 -0.529964 -0.900836
v -0.881297 -0.365045 -0.900836
v -0.935580 -0.186098 -0.900836
v -0.953910 0.000000 -0.900836
v -0.935580 0.186099 -0.900836
v -0.881297 0.365045 -0.900836
v -0.793147 0.529964 -0.900836
v -0.674516 0.674516 -0.900836
v -0.529964 0.793147 -0.900836
v -0.365045 0.881298 -0.900836
v -0.186099 0.935580 -0.900836
vn 0.0890 0.9032 0.4198
vn 0.2635 0.8685 0.4198
vn 0.4278 0.8004 0.4198
vn 0.5758 0.7016 0.4198
vn 0.7016 0.5758 0.4198
vn 0.8004 0.4278 0.4198
vn 0.8685 0.2635 0.4198
vn 0.9032 0.0890 0.4198
vn 0.9032 -0.0890 0.4198
vn 0.8685 -0.2635 0.4198
vn 0.8004 -0.4278 0.4198
vn 0.7016 -0.5758 0.4198
vn 0.5758 -0.7016 0.4198
vn 0.4278 -0.8004 0.4198
vn 0.2635 -0.8685 0.4198
vn 0.0890 -0.9032 0.4198
vn -0.0890 -0.9032 0.4198
vn -0.2635 -0.8685 0.4198
vn -0.4278 -0.8004 0.4198
vn -0.5758 -0.7016 0.4198
vn -0.7016 -0.5758 0.4198
vn -0.8004 -0.4278 0.4198
vn -0.8685 -0.2635 0.4198
vn -0.9032 -0.0890 0.4198
vn -0.9032 0.0890 0.4198
vn -0.8685 0.2635 0.4198
vn -0.8004 0.4278 0.4198
vn -0.7016 0.5758 0.4198
vn -0.5758 0.7016 0.4198
vn -0.4278 0.8004 0.4198
vn -0.0000 -0.0000 1.0000
vn -0.2635 0.8685 0.4198
vn -0.0890 0.9032 0.4198
vn -0.0000 -0.0000 -1.0000
vn -0.0685 0.6954 -0.7153
vn -0.2028 0.6687 -0.7153
vn -0.3294 0.6163 -0.7153
vn -0.4433 0.5402 -0.7153
vn -0.5402 0.4433 -0.7153
vn -0.6163 0.3294 -0.7153
vn -0.6687 0.2028 -0.7153
vn -0.6954 0.0685 -0.7153
vn -0.6954 -0.0685 -0.7153
vn -0.6687 -0.2028 -0.7153
vn -0.6163 -0.3294 -0.7153
vn -0.5402 -0.4433 -0.7153
vn -0.4433 -0.5402 -0.7153
vn -0.3294 -0.6163 -0.7153
vn -0.2028 -0.6687 -0.7153
vn -0.0685 -0.6954 -0.7153
vn 0.0685 -0.6954 -0.7153
vn 0.2028 -0.6687 -0.7153
vn 0.3294 -0.6163 -0.7153
vn 0.4433 -0.5402 -0.7153
vn 0.5402 -0.4433 -0.7153
vn 0.6163 -0.3294 -0.7153
vn 0.6687 -0.2028 -0.7153
vn 0.6954 -0.0685 -0.7153
vn 0.6954 0.0685 -0.7153
vn 0.6687 0.2028 -0.7153
vn 0.6163 0.3294 -0.7153
vn 0.5402 0.4433 -0.7153
vn 0.4433 0.5402 -0.7153
vn 0.3294 0.6163 -0.7153
vn 0.2028 0.6687 -0.7153
vn 0.0685 0.6954 -0.7153
vn -0.0001 -0.0000 1.0000
vn 0.0001 -0.0000 1.0000
vt 8.504766 1.000000
vt 8.004467 0.053295
vt 8.504766 0.053295
vt 8.004467 1.000000
vt 7.504169 0.053295
vt 7.504170 1.000000
vt 7.003871 0.053295
vt 7.003872 1.000000
vt 6.503574 0.053295
vt 6.003276 1.000000
vt 6.003276 0.053295
vt 5.502978 0.053295
vt 5.502978 1.000000
vt 5.002681 0.053295
vt 5.002681 1.000000
vt 4.502382 0.053295
vt 4.502383 1.000000
vt 4.002085 0.053295
vt 4.002085 1.000000
vt 3.501787 0.053295
vt 3.501787 1.000000
vt 3.001489 0.053295
vt 3.001489 1.000000
vt 2.501191 0.053295
vt 2.000894 1.000000
vt 2.000894 0.053295
vt 1.500596 0.053295
vt 1.500596 1.000000
vt 1.000298 0.053295
vt 0.500000 1.000000
vt 0.500000 0.053295
vt -0.000298 0.053295
vt -0.500596 1.000000
vt -0.500596 0.053295
vt -1.000894 0.053295
vt -1.000894 1.000000
vt -1.501191 0.053295
vt -2.001489 1.000000
vt -2.001489 0.053295
vt -2.501787 0.053295
vt -2.501787 1.000000
vt -3.002085 0.053295
vt -3.002085 1.000000
vt -3.502383 0.053295
vt -3.502383 1.000000
vt -4.002681 0.053295
vt -4.002681 1.000000
vt -4.502978 0.053295
vt -4.502978 1.000000
vt -5.003276 0.053295
vt -5.003276 1.000000
vt -5.503574 0.053295
vt -5.503574 1.000000
vt -6.003871 0.053295
vt -6.003872 1.000000
vt -6.504170 0.053295
vt -4.972763 0.028269
vt 0.047428 0.158156
vt -2.032003 0.471731
vt -6.504170 1.000000
vt -7.004468 0.053295
vt -7.004467 1.000000
vt -7.504766 0.053295
vt 3.752790 0.485388
vt 8.270842 0.296822
vt 5.251976 0.014612
vt -7.504766 0.003906
vt -7.004467 0.003906
vt -6.504170 0.003906
vt -6.003872 0.003906
vt -5.503574 0.003906
vt -5.003276 0.003906
vt -4.502978 0.003906
vt -4.002681 0.003906
vt -3.502383 0.003906
vt -3.002085 0.003906
vt -2.501787 0.003906
vt -2.001489 0.003906
vt -1.501191 0.003906
vt -1.000894 0.003906
vt -0.500596 0.003906
vt -0.000298 0.003906
vt 0.500000 0.003906
vt 1.000298 0.003906
vt 1.500596 0.003906
vt 2.000894 0.003906
vt 2.501191 0.003906
vt 3.001489 0.003906
vt 3.501787 0.003906
vt 4.002085 0.003906
vt 4.502383 0.003906
vt 5.002681 0.003906
vt 5.502978 0.003906
vt 6.003276 0.003906
vt 6.503574 0.003906
vt 7.003872 0.003906
vt 7.504170 0.003906
vt 8.004467 0.003906
vt 8.504766 0.003906
vt 6.503574 1.000000
vt 2.501191 1.000000
vt 1.000298 1.000000
vt -0.000298 1.000000
vt -1.501191 1.000000
vt -2.752789 0.485388
vt -3.502383 0.490000
vt -4.251976 0.485388
vt -4.972763 0.471731
vt -5.637043 0.449553
vt -7.052193 0.341844
vt -6.219290 0.419706
vt -6.697128 0.383337
vt -7.270842 0.296822
vt -7.344670 0.250000
vt -7.270842 0.203178
vt -7.052193 0.158156
vt -6.697128 0.116663
vt -6.219290 0.080294
vt -5.637043 0.050447
vt -4.251976 0.014612
vt -3.502383 0.010000
vt -2.752789 0.014612
vt -2.032003 0.028269
vt -1.367723 0.050447
vt -0.785475 0.080294
vt -0.307637 0.116663
vt 0.266076 0.203178
vt 0.339905 0.250000
vt 0.266076 0.296822
vt 0.047428 0.341844
vt -0.307637 0.383337
vt -0.785475 0.419706
vt -1.367723 0.449553
vt -7.504766 1.000000
vt 4.502383 0.490000
vt 5.251976 0.485388
vt 5.972763 0.471731
vt 6.637043 0.449553
vt 7.219290 0.419706
vt 7.697128 0.383337
vt 8.052193 0.341844
vt 8.344670 0.250000
vt 8.270842 0.203178
vt 8.052193 0.158156
vt 7.697128 0.116663
vt 7.219290 0.080294
vt 6.637043 0.050447
vt 5.972763 0.028269
vt 4.502383 0.010000
vt 3.752790 0.014612
vt 3.032003 0.028269
vt 2.367723 0.050447
vt 1.785475 0.080294
vt 0.733924 0.203178
vt 1.307637 0.116663
vt 0.952572 0.158156
vt 0.660095 0.250000
vt 0.733924 0.296822
vt 0.952572 0.341844
vt 1.307637 0.383337
vt 1.785475 0.419706
vt 2.367723 0.449553
vt 3.032003 0.471731
s 0
f 2/1/1 66/2/1 65/3/1
f 4/4/2 67/5/2 66/2/2
f 6/6/3 68/7/3 67/5/3
f 8/8/4 69/9/4 68/7/4
f 69/9/5 12/10/5 70/11/5
f 12/10/6 71/12/6 70/11/6
f 14/13/7 72/14/7 71/12/7
f 16/15/8 73/16/8 72/14/8
f 18/17/9 74/18/9 73/16/9
f 20/19/10 75/20/10 74/18/10
f 22/21/11 76/22/11 75/20/11
f 24/23/12 77/24/12 76/22/12
f 77/24/13 28/25/13 78/26/13
f 28/25/14 79/27/14 78/26/14
f 30/28/15 80/29/15 79/27/15
f 80/29/16 34/30/16 81/31/16
f 34/30/17 82/32/17 81/31/17
f 82/32/18 38/33/18 83/34/18
f 38/33/19 84/35/19 83/34/19
f 40/36/20 85/37/20 84/35/20
f 85/37/21 44/38/21 86/39/21
f 44/38/22 87/40/22 86/39/22
f 46/41/23 88/42/23 87/40/23
f 48/43/24 89/44/24 88/42/24
f 50/45/25 90/46/25 89/44/25
f 52/47/26 91/48/26 90/46/26
f 54/49/27 92/50/27 91/48/27
f 56/51/28 93/52/28 92/50/28
f 58/53/29 94/54/29 93/52/29
f 60/55/30 95/56/30 94/54/30
f 38/57/31 22/58/31 6/59/31
f 62/60/32 96/61/32 95/56/32
f 64/62/33 65/63/33 96/61/33
f 63/64/34 15/65/34 31/66/34
f 96/61/35 1/67/35 63/68/35
f 61/69/36 96/61/36 63/68/36
f 59/70/37 95/56/37 61/69/37
f 93/52/38 59/70/38 57/71/38
f 92/50/39 57/71/39 55/72/39
f 91/48/40 55/72/40 53/73/40
f 90/46/41 53/73/41 51/74/41
f 49/75/42 90/46/42 51/74/42
f 88/42/43 49/75/43 47/76/43
f 45/77/44 88/42/44 47/76/44
f 43/78/45 87/40/45 45/77/45
f 85/37/46 43/78/46 41/79/46
f 39/80/47 85/37/47 41/79/47
f 83/34/48 39/80/48 37/81/48
f 82/32/49 37/81/49 35/82/49
f 81/31/50 35/82/50 33/83/50
f 31/84/51 81/31/51 33/83/51
f 29/85/52 80/29/52 31/84/52
f 27/86/53 79/27/53 29/85/53
f 77/24/54 27/86/54 25/87/54
f 76/22/55 25/87/55 23/88/55
f 75/20/56 23/88/56 21/89/56
f 74/18/57 21/89/57 19/90/57
f 17/91/58 74/18/58 19/90/58
f 72/14/59 17/91/59 15/92/59
f 13/93/60 72/14/60 15/92/60
f 11/94/61 71/12/61 13/93/61
f 69/9/62 11/94/62 9/95/62
f 68/7/63 9/95/63 7/96/63
f 67/5/64 7/96/64 5/97/64
f 66/2/65 5/97/65 3/98/65
f 1/99/66 66/2/66 3/98/66
f 2/1/1 4/4/1 66/2/1
f 4/4/2 6/6/2 67/5/2
f 6/6/3 8/8/3 68/7/3
f 8/8/4 10/100/4 69/9/4
f 69/9/5 10/100/5 12/10/5
f 12/10/6 14/13/6 71/12/6
f 14/13/7 16/15/7 72/14/7
f 16/15/8 18/17/8 73/16/8
f 18/17/9 20/19/9 74/18/9
f 20/19/10 22/21/10 75/20/10
f 22/21/11 24/23/11 76/22/11
f 24/23/12 26/101/12 77/24/12
f 77/24/13 26/101/13 28/25/13
f 28/25/14 30/28/14 79/27/14
f 30/28/15 32/102/15 80/29/15
f 80/29/16 32/102/16 34/30/16
f 34/30/17 36/103/17 82/32/17
f 82/32/18 36/103/18 38/33/18
f 38/33/19 40/36/19 84/35/19
f 40/36/20 42/104/20 85/37/20
f 85/37/21 42/104/21 44/38/21
f 44/38/22 46/41/22 87/40/22
f 46/41/23 48/43/23 88/42/23
f 48/43/24 50/45/24 89/44/24
f 50/45/25 52/47/25 90/46/25
f 52/47/26 54/49/26 91/48/26
f 54/49/27 56/51/27 92/50/27
f 56/51/28 58/53/28 93/52/28
f 58/53/29 60/55/29 94/54/29
f 60/55/30 62/60/30 95/56/30
f 6/59/31 4/105/31 2/106/31
f 2/106/31 64/107/31 62/108/31
f 62/108/31 60/109/31 54/110/31
f 60/109/31 58/111/31 54/110/31
f 58/111/31 56/112/31 54/110/31
f 54/110/67 52/113/67 50/114/67
f 50/114/68 48/115/68 46/116/68
f 46/116/31 44/117/31 42/118/31
f 42/118/31 40/119/31 46/116/31
f 40/119/31 38/57/31 46/116/31
f 38/57/31 36/120/31 34/121/31
f 34/121/31 32/122/31 30/123/31
f 30/123/31 28/124/31 26/125/31
f 26/125/31 24/126/31 22/58/31
f 22/58/67 20/127/67 18/128/67
f 18/128/68 16/129/68 14/130/68
f 14/130/31 12/131/31 10/132/31
f 10/132/31 8/133/31 6/59/31
f 6/59/31 2/106/31 62/108/31
f 54/110/31 50/114/31 46/116/31
f 38/57/31 34/121/31 30/123/31
f 30/123/31 26/125/31 38/57/31
f 26/125/31 22/58/31 38/57/31
f 22/58/31 18/128/31 14/130/31
f 14/130/31 10/132/31 22/58/31
f 10/132/31 6/59/31 22/58/31
f 6/59/31 62/108/31 54/110/31
f 54/110/31 46/116/31 38/57/31
f 6/59/31 54/110/31 38/57/31
f 62/60/32 64/62/32 96/61/32
f 64/62/33 2/134/33 65/63/33
f 63/64/34 1/135/34 3/136/34
f 3/136/34 5/137/34 7/138/34
f 7/138/34 9/139/34 15/65/34
f 9/139/34 11/140/34 15/65/34
f 11/140/34 13/141/34 15/65/34
f 15/65/34 17/142/34 19/143/34
f 19/143/34 21/144/34 23/145/34
f 23/145/34 25/146/34 27/147/34
f 27/147/34 29/148/34 31/66/34
f 31/66/34 33/149/34 35/150/34
f 35/150/34 37/151/34 39/152/34
f 39/152/34 41/153/34 47/154/34
f 41/153/34 43/155/34 47/154/34
f 43/155/34 45/156/34 47/154/34
f 47/154/34 49/157/34 51/158/34
f 51/158/34 53/159/34 55/160/34
f 55/160/34 57/161/34 63/64/34
f 57/161/34 59/162/34 63/64/34
f 59/162/34 61/163/34 63/64/34
f 63/64/34 3/136/34 7/138/34
f 15/65/34 19/143/34 23/145/34
f 23/145/34 27/147/34 15/65/34
f 27/147/34 31/66/34 15/65/34
f 31/66/34 35/150/34 39/152/34
f 47/154/34 51/158/34 55/160/34
f 63/64/34 7/138/34 15/65/34
f 31/66/34 39/152/34 63/64/34
f 39/152/34 47/154/34 63/64/34
f 47/154/34 55/160/34 63/64/34
f 96/61/35 65/63/35 1/67/35
f 61/69/36 95/56/36 96/61/36
f 59/70/37 94/54/37 95/56/37
f 93/52/38 94/54/38 59/70/38
f 92/50/39 93/52/39 57/71/39
f 91/48/40 92/50/40 55/72/40
f 90/46/41 91/48/41 53/73/41
f 49/75/42 89/44/42 90/46/42
f 88/42/43 89/44/43 49/75/43
f 45/77/44 87/40/44 88/42/44
f 43/78/45 86/39/45 87/40/45
f 85/37/46 86/39/46 43/78/46
f 39/80/47 84/35/47 85/37/47
f 83/34/48 84/35/48 39/80/48
f 82/32/49 83/34/49 37/81/49
f 81/31/50 82/32/50 35/82/50
f 31/84/51 80/29/51 81/31/51
f 29/85/52 79/27/52 80/29/52
f 27/86/53 78/26/53 79/27/53
f 77/24/54 78/26/54 27/86/54
f 76/22/55 77/24/55 25/87/55
f 75/20/56 76/22/56 23/88/56
f 74/18/57 75/20/57 21/89/57
f 17/91/58 73/16/58 74/18/58
f 72/14/59 73/16/59 17/91/59
f 13/93/60 71/12/60 72/14/60
f 11/94/61 70/11/61 71/12/61
f 69/9/62 70/11/62 11/94/62
f 68/7/63 69/9/63 9/95/63
f 67/5/64 68/7/64 7/96/64
f 66/2/65 67/5/65 5/97/65
f 1/99/66 65/3/66 66/2/66
